<svg width="1200" height="280" viewBox="0 0 1200 280" xmlns="http://www.w3.org/2000/svg">
  <defs>
    <linearGradient id="bg" x1="0" y1="0" x2="1200" y2="280" gradientUnits="userSpaceOnUse">
      <stop offset="0%" stop-color="#1d1c18"/>
      <stop offset="100%" stop-color="#141310"/>
    </linearGradient>
    <radialGradient id="glow" cx="14%" cy="50%" r="55%">
      <stop offset="0%" stop-color="#e3aa4a" stop-opacity="0.22"/>
      <stop offset="100%" stop-color="#e3aa4a" stop-opacity="0"/>
    </radialGradient>
    <linearGradient id="amberBody" x1="4" y1="2" x2="28" y2="30" gradientUnits="userSpaceOnUse">
      <stop offset="0%" stop-color="#f8dfa0"/>
      <stop offset="48%" stop-color="#e0a53f"/>
      <stop offset="100%" stop-color="#8a5a1c"/>
    </linearGradient>
    <linearGradient id="amberHighlight" x1="8" y1="3" x2="17" y2="13" gradientUnits="userSpaceOnUse">
      <stop offset="0%" stop-color="#ffffff" stop-opacity="0.65"/>
      <stop offset="100%" stop-color="#ffffff" stop-opacity="0"/>
    </linearGradient>
    <pattern id="dots" width="26" height="26" patternUnits="userSpaceOnUse">
      <circle cx="1" cy="1" r="1" fill="#3c382f" fill-opacity="0.5"/>
    </pattern>
  </defs>

  <rect width="1200" height="280" fill="url(#bg)"/>
  <rect width="1200" height="280" fill="url(#dots)"/>
  <rect width="1200" height="280" fill="url(#glow)"/>

  <!-- faint knowledge-graph texture, right side -->
  <g stroke="#e3aa4a" stroke-opacity="0.18" stroke-width="1">
    <line x1="880" y1="70" x2="960" y2="120"/>
    <line x1="960" y1="120" x2="940" y2="200"/>
    <line x1="960" y1="120" x2="1050" y2="100"/>
    <line x1="1050" y1="100" x2="1120" y2="160"/>
    <line x1="940" y1="200" x2="1030" y2="230"/>
    <line x1="1030" y1="230" x2="1120" y2="160"/>
    <line x1="880" y1="70" x2="820" y2="150"/>
  </g>
  <g fill="#e3aa4a" fill-opacity="0.55">
    <circle cx="880" cy="70" r="3.5"/>
    <circle cx="960" cy="120" r="4.5"/>
    <circle cx="940" cy="200" r="3.5"/>
    <circle cx="1050" cy="100" r="3.5"/>
    <circle cx="1120" cy="160" r="4"/>
    <circle cx="1030" cy="230" r="3"/>
    <circle cx="820" cy="150" r="3"/>
  </g>

  <!-- gem logo, scaled up -->
  <g transform="translate(70,68) scale(4.5)">
    <polygon points="16,2 27,9 27,23 16,30 5,23 5,9" fill="url(#amberBody)" stroke="#5b3a12" stroke-opacity="0.35" stroke-width="0.75"/>
    <path d="M16 2 L16 30 M5 9 L27 23 M5 23 L27 9" stroke="#5b3a12" stroke-opacity="0.22" stroke-width="0.6" fill="none"/>
    <polygon points="16,2 22,6 16,11.5 9,7" fill="url(#amberHighlight)"/>
    <g stroke="#fff6e3" stroke-opacity="0.9" stroke-width="0.9" fill="#fff6e3">
      <line x1="12" y1="19.5" x2="16" y2="16.5" stroke-opacity="0.75"/>
      <line x1="16" y1="16.5" x2="20.5" y2="20" stroke-opacity="0.75"/>
      <circle cx="12" cy="19.5" r="1.3"/>
      <circle cx="16" cy="16.5" r="1.5"/>
      <circle cx="20.5" cy="20" r="1.3"/>
    </g>
  </g>

  <text x="290" y="128" font-family="Georgia, 'Times New Roman', serif" font-size="64" font-weight="700" fill="#ede8db" letter-spacing="-1">Amber</text>
  <text x="292" y="164" font-family="-apple-system, Segoe UI, sans-serif" font-size="19" fill="#b3ac9c">A local, Obsidian-style app for Open Knowledge Format bundles</text>
  <text x="292" y="192" font-family="-apple-system, Segoe UI, sans-serif" font-size="19" fill="#b3ac9c">— built for notes that both you and AI agents maintain.</text>
</svg>
